<svg id="visual" viewBox="0 0 960 540" width="960" height="540" xmlns="http://www.w3.org/2000/svg" xmlns:xlink="http://www.w3.org/1999/xlink" version="1.1"><rect x="0" y="0" width="960" height="540" fill="#16181D"></rect><path d="M0 500L7.7 487.3C15.3 474.7 30.7 449.3 45.8 433.5C61 417.7 76 411.3 91.2 422C106.3 432.7 121.7 460.3 137 474.8C152.3 489.3 167.7 490.7 183 482C198.3 473.3 213.7 454.7 228.8 436C244 417.3 259 398.7 274.2 400C289.3 401.3 304.7 422.7 320 440.2C335.3 457.7 350.7 471.3 365.8 459.5C381 447.7 396 410.3 411.2 393C426.3 375.7 441.7 378.3 457 396C472.3 413.7 487.7 446.3 503 462.5C518.3 478.7 533.7 478.3 548.8 467.3C564 456.3 579 434.7 594.2 418C609.3 401.3 624.7 389.7 640 385.5C655.3 381.3 670.7 384.7 685.8 381.5C701 378.3 716 368.7 731.2 382.8C746.3 397 761.7 435 777 441.3C792.3 447.7 807.7 422.3 823 410.7C838.3 399 853.7 401 868.8 398.8C884 396.7 899 390.3 914.2 384.8C929.3 379.3 944.7 374.7 952.3 372.3L960 370" fill="none" stroke-linecap="round" stroke-linejoin="miter" stroke="#60a5fa" stroke-width="40"></path></svg>