<svg id="visual" viewBox="0 0 960 540" width="960" height="540" xmlns="http://www.w3.org/2000/svg" xmlns:xlink="http://www.w3.org/1999/xlink" version="1.1"><rect x="0" y="0" width="960" height="540" fill="#fff"></rect><defs><linearGradient id="grad1_0" x1="43.8%" y1="0%" x2="100%" y2="100%"><stop offset="14.444444444444446%" stop-color="#2563eb" stop-opacity="1"></stop><stop offset="85.55555555555554%" stop-color="#2563eb" stop-opacity="1"></stop></linearGradient></defs><defs><linearGradient id="grad1_1" x1="43.8%" y1="0%" x2="100%" y2="100%"><stop offset="14.444444444444446%" stop-color="#2563eb" stop-opacity="1"></stop><stop offset="85.55555555555554%" stop-color="#7887f1" stop-opacity="1"></stop></linearGradient></defs><defs><linearGradient id="grad1_2" x1="43.8%" y1="0%" x2="100%" y2="100%"><stop offset="14.444444444444446%" stop-color="#aaadf7" stop-opacity="1"></stop><stop offset="85.55555555555554%" stop-color="#7887f1" stop-opacity="1"></stop></linearGradient></defs><defs><linearGradient id="grad1_3" x1="43.8%" y1="0%" x2="100%" y2="100%"><stop offset="14.444444444444446%" stop-color="#aaadf7" stop-opacity="1"></stop><stop offset="85.55555555555554%" stop-color="#d6d5fb" stop-opacity="1"></stop></linearGradient></defs><defs><linearGradient id="grad1_4" x1="43.8%" y1="0%" x2="100%" y2="100%"><stop offset="14.444444444444446%" stop-color="#ffffff" stop-opacity="1"></stop><stop offset="85.55555555555554%" stop-color="#d6d5fb" stop-opacity="1"></stop></linearGradient></defs><defs><linearGradient id="grad2_0" x1="0%" y1="0%" x2="56.3%" y2="100%"><stop offset="14.444444444444446%" stop-color="#2563eb" stop-opacity="1"></stop><stop offset="85.55555555555554%" stop-color="#2563eb" stop-opacity="1"></stop></linearGradient></defs><defs><linearGradient id="grad2_1" x1="0%" y1="0%" x2="56.3%" y2="100%"><stop offset="14.444444444444446%" stop-color="#7887f1" stop-opacity="1"></stop><stop offset="85.55555555555554%" stop-color="#2563eb" stop-opacity="1"></stop></linearGradient></defs><defs><linearGradient id="grad2_2" x1="0%" y1="0%" x2="56.3%" y2="100%"><stop offset="14.444444444444446%" stop-color="#7887f1" stop-opacity="1"></stop><stop offset="85.55555555555554%" stop-color="#aaadf7" stop-opacity="1"></stop></linearGradient></defs><defs><linearGradient id="grad2_3" x1="0%" y1="0%" x2="56.3%" y2="100%"><stop offset="14.444444444444446%" stop-color="#d6d5fb" stop-opacity="1"></stop><stop offset="85.55555555555554%" stop-color="#aaadf7" stop-opacity="1"></stop></linearGradient></defs><defs><linearGradient id="grad2_4" x1="0%" y1="0%" x2="56.3%" y2="100%"><stop offset="14.444444444444446%" stop-color="#d6d5fb" stop-opacity="1"></stop><stop offset="85.55555555555554%" stop-color="#ffffff" stop-opacity="1"></stop></linearGradient></defs><g transform="translate(960, 0)"><path d="M0 540C-46 529.9 -92 519.8 -132.8 495.5C-173.5 471.2 -208.9 432.7 -225.5 390.6C-242.1 348.5 -239.7 302.9 -289.9 289.9C-340.1 277 -442.8 296.7 -467.7 270C-492.5 243.3 -439.5 170.2 -438.5 117.5C-437.6 64.8 -488.8 32.4 -540 0L0 0Z" fill="#ebeafd"></path><path d="M0 432C-36.8 423.9 -73.6 415.9 -106.2 396.4C-138.8 377 -167.2 346.1 -180.4 312.5C-193.6 278.8 -191.8 242.3 -231.9 231.9C-272.1 221.6 -354.3 237.3 -374.1 216C-394 194.7 -351.6 136.2 -350.8 94C-350.1 51.8 -391 25.9 -432 0L0 0Z" fill="#c1c1f9"></path><path d="M0 324C-27.6 318 -55.2 311.9 -79.7 297.3C-104.1 282.7 -125.4 259.6 -135.3 234.3C-145.2 209.1 -143.8 181.7 -173.9 173.9C-204.1 166.2 -265.7 178 -280.6 162C-295.5 146 -263.7 102.1 -263.1 70.5C-262.6 38.9 -293.3 19.4 -324 0L0 0Z" fill="#939af4"></path><path d="M0 216C-18.4 212 -36.8 207.9 -53.1 198.2C-69.4 188.5 -83.6 173.1 -90.2 156.2C-96.8 139.4 -95.9 121.1 -116 116C-136 110.8 -177.1 118.7 -187.1 108C-197 97.3 -175.8 68.1 -175.4 47C-175 25.9 -195.5 13 -216 0L0 0Z" fill="#5875ee"></path><path d="M0 108C-9.2 106 -18.4 104 -26.6 99.1C-34.7 94.2 -41.8 86.5 -45.1 78.1C-48.4 69.7 -47.9 60.6 -58 58C-68 55.4 -88.6 59.3 -93.5 54C-98.5 48.7 -87.9 34 -87.7 23.5C-87.5 13 -97.8 6.5 -108 0L0 0Z" fill="#2563eb"></path></g><g transform="translate(0, 540)"><path d="M0 -540C28.6 -474.1 57.3 -408.2 109.5 -408.6C161.7 -408.9 237.5 -475.5 265.5 -459.9C293.5 -444.2 273.7 -346.4 308.3 -308.3C342.9 -270.2 432 -291.7 467.7 -270C503.3 -248.3 485.6 -183.2 488.8 -131C491.9 -78.7 516 -39.4 540 0L0 0Z" fill="#ebeafd"></path><path d="M0 -432C22.9 -379.3 45.8 -326.6 87.6 -326.9C129.4 -327.1 190 -380.4 212.4 -367.9C234.8 -355.4 218.9 -277.1 246.6 -246.6C274.3 -216.1 345.6 -233.4 374.1 -216C402.7 -198.6 388.5 -146.5 391 -104.8C393.5 -63 412.8 -31.5 432 0L0 0Z" fill="#c1c1f9"></path><path d="M0 -324C17.2 -284.5 34.4 -244.9 65.7 -245.2C97 -245.4 142.5 -285.3 159.3 -275.9C176.1 -266.5 164.2 -207.9 185 -185C205.8 -162.1 259.2 -175 280.6 -162C302 -149 291.4 -109.9 293.3 -78.6C295.2 -47.2 309.6 -23.6 324 0L0 0Z" fill="#939af4"></path><path d="M0 -216C11.5 -189.6 22.9 -163.3 43.8 -163.4C64.7 -163.6 95 -190.2 106.2 -183.9C117.4 -177.7 109.5 -138.6 123.3 -123.3C137.2 -108.1 172.8 -116.7 187.1 -108C201.3 -99.3 194.2 -73.3 195.5 -52.4C196.8 -31.5 206.4 -15.7 216 0L0 0Z" fill="#5875ee"></path><path d="M0 -108C5.7 -94.8 11.5 -81.6 21.9 -81.7C32.3 -81.8 47.5 -95.1 53.1 -92C58.7 -88.8 54.7 -69.3 61.7 -61.7C68.6 -54 86.4 -58.3 93.5 -54C100.7 -49.7 97.1 -36.6 97.8 -26.2C98.4 -15.7 103.2 -7.9 108 0L0 0Z" fill="#2563eb"></path></g></svg>