<svg id="visual" viewBox="0 0 960 540" width="960" height="540" xmlns="http://www.w3.org/2000/svg" xmlns:xlink="http://www.w3.org/1999/xlink" version="1.1"><rect x="0" y="0" width="960" height="540" fill="#fff"></rect><defs><linearGradient id="grad1_0" x1="43.8%" y1="0%" x2="100%" y2="100%"><stop offset="14.444444444444446%" stop-color="#2563eb" stop-opacity="1"></stop><stop offset="85.55555555555554%" stop-color="#2563eb" stop-opacity="1"></stop></linearGradient></defs><defs><linearGradient id="grad1_1" x1="43.8%" y1="0%" x2="100%" y2="100%"><stop offset="14.444444444444446%" stop-color="#2563eb" stop-opacity="1"></stop><stop offset="85.55555555555554%" stop-color="#7887f1" stop-opacity="1"></stop></linearGradient></defs><defs><linearGradient id="grad1_2" x1="43.8%" y1="0%" x2="100%" y2="100%"><stop offset="14.444444444444446%" stop-color="#aaadf7" stop-opacity="1"></stop><stop offset="85.55555555555554%" stop-color="#7887f1" stop-opacity="1"></stop></linearGradient></defs><defs><linearGradient id="grad1_3" x1="43.8%" y1="0%" x2="100%" y2="100%"><stop offset="14.444444444444446%" stop-color="#aaadf7" stop-opacity="1"></stop><stop offset="85.55555555555554%" stop-color="#d6d5fb" stop-opacity="1"></stop></linearGradient></defs><defs><linearGradient id="grad1_4" x1="43.8%" y1="0%" x2="100%" y2="100%"><stop offset="14.444444444444446%" stop-color="#ffffff" stop-opacity="1"></stop><stop offset="85.55555555555554%" stop-color="#d6d5fb" stop-opacity="1"></stop></linearGradient></defs><defs><linearGradient id="grad2_0" x1="0%" y1="0%" x2="56.3%" y2="100%"><stop offset="14.444444444444446%" stop-color="#2563eb" stop-opacity="1"></stop><stop offset="85.55555555555554%" stop-color="#2563eb" stop-opacity="1"></stop></linearGradient></defs><defs><linearGradient id="grad2_1" x1="0%" y1="0%" x2="56.3%" y2="100%"><stop offset="14.444444444444446%" stop-color="#7887f1" stop-opacity="1"></stop><stop offset="85.55555555555554%" stop-color="#2563eb" stop-opacity="1"></stop></linearGradient></defs><defs><linearGradient id="grad2_2" x1="0%" y1="0%" x2="56.3%" y2="100%"><stop offset="14.444444444444446%" stop-color="#7887f1" stop-opacity="1"></stop><stop offset="85.55555555555554%" stop-color="#aaadf7" stop-opacity="1"></stop></linearGradient></defs><defs><linearGradient id="grad2_3" x1="0%" y1="0%" x2="56.3%" y2="100%"><stop offset="14.444444444444446%" stop-color="#d6d5fb" stop-opacity="1"></stop><stop offset="85.55555555555554%" stop-color="#aaadf7" stop-opacity="1"></stop></linearGradient></defs><defs><linearGradient id="grad2_4" x1="0%" y1="0%" x2="56.3%" y2="100%"><stop offset="14.444444444444446%" stop-color="#d6d5fb" stop-opacity="1"></stop><stop offset="85.55555555555554%" stop-color="#ffffff" stop-opacity="1"></stop></linearGradient></defs><g transform="translate(960, 0)"><path d="M0 540C-36.6 482.3 -73.2 424.5 -106.6 398C-140.1 371.4 -170.5 376 -222 384.5C-273.5 393 -346.3 405.3 -380.4 380.4C-414.6 355.5 -410.1 293.3 -431.3 249C-452.4 204.7 -499.2 178.3 -521.6 139.8C-544 101.2 -542 50.6 -540 0L0 0Z" fill="#ebeafd"></path><path d="M0 432C-29.3 385.8 -58.5 339.6 -85.3 318.4C-112.1 297.1 -136.4 300.8 -177.6 307.6C-218.8 314.4 -277 324.3 -304.3 304.3C-331.7 284.4 -328.1 234.6 -345 199.2C-362 163.8 -399.4 142.6 -417.3 111.8C-435.2 81 -433.6 40.5 -432 0L0 0Z" fill="#c1c1f9"></path><path d="M0 324C-21.9 289.4 -43.9 254.7 -64 238.8C-84.1 222.8 -102.3 225.6 -133.2 230.7C-164.1 235.8 -207.8 243.2 -228.3 228.3C-248.7 213.3 -246.1 176 -258.8 149.4C-271.5 122.8 -299.5 107 -313 83.9C-326.4 60.7 -325.2 30.4 -324 0L0 0Z" fill="#939af4"></path><path d="M0 216C-14.6 192.9 -29.3 169.8 -42.7 159.2C-56 148.6 -68.2 150.4 -88.8 153.8C-109.4 157.2 -138.5 162.1 -152.2 152.2C-165.8 142.2 -164 117.3 -172.5 99.6C-181 81.9 -199.7 71.3 -208.6 55.9C-217.6 40.5 -216.8 20.2 -216 0L0 0Z" fill="#5875ee"></path><path d="M0 108C-7.3 96.5 -14.6 84.9 -21.3 79.6C-28 74.3 -34.1 75.2 -44.4 76.9C-54.7 78.6 -69.3 81.1 -76.1 76.1C-82.9 71.1 -82 58.7 -86.3 49.8C-90.5 40.9 -99.8 35.7 -104.3 28C-108.8 20.2 -108.4 10.1 -108 0L0 0Z" fill="#2563eb"></path></g><g transform="translate(0, 540)"><path d="M0 -540C42.9 -509.8 85.9 -479.7 119.6 -446.3C153.3 -412.8 177.7 -376.2 203 -351.6C228.3 -327 254.5 -314.6 308.3 -308.3C362.1 -302 443.4 -302 467.7 -270C491.9 -238 459.2 -174 461.7 -123.7C464.3 -73.4 502.1 -36.7 540 0L0 0Z" fill="#ebeafd"></path><path d="M0 -432C34.4 -407.9 68.7 -383.7 95.7 -357C122.6 -330.3 142.1 -300.9 162.4 -281.3C182.7 -261.6 203.6 -251.6 246.6 -246.6C289.7 -241.6 354.7 -241.6 374.1 -216C393.5 -190.4 367.3 -139.2 369.4 -99C371.4 -58.7 401.7 -29.4 432 0L0 0Z" fill="#c1c1f9"></path><path d="M0 -324C25.8 -305.9 51.5 -287.8 71.7 -267.8C92 -247.7 106.6 -225.7 121.8 -211C137 -196.2 152.7 -188.7 185 -185C217.2 -181.2 266 -181.2 280.6 -162C295.2 -142.8 275.5 -104.4 277 -74.2C278.6 -44 301.3 -22 324 0L0 0Z" fill="#939af4"></path><path d="M0 -216C17.2 -203.9 34.4 -191.9 47.8 -178.5C61.3 -165.1 71.1 -150.5 81.2 -140.6C91.3 -130.8 101.8 -125.8 123.3 -123.3C144.8 -120.8 177.4 -120.8 187.1 -108C196.8 -95.2 183.7 -69.6 184.7 -49.5C185.7 -29.4 200.9 -14.7 216 0L0 0Z" fill="#5875ee"></path><path d="M0 -108C8.6 -102 17.2 -95.9 23.9 -89.3C30.7 -82.6 35.5 -75.2 40.6 -70.3C45.7 -65.4 50.9 -62.9 61.7 -61.7C72.4 -60.4 88.7 -60.4 93.5 -54C98.4 -47.6 91.8 -34.8 92.3 -24.7C92.9 -14.7 100.4 -7.3 108 0L0 0Z" fill="#2563eb"></path></g></svg>