<svg id="visual" viewBox="0 0 960 540" width="960" height="540" xmlns="http://www.w3.org/2000/svg" xmlns:xlink="http://www.w3.org/1999/xlink" version="1.1"><rect x="0" y="0" width="960" height="540" fill="#fff"></rect><defs><linearGradient id="grad1_0" x1="43.8%" y1="0%" x2="100%" y2="100%"><stop offset="14.444444444444446%" stop-color="#2563eb" stop-opacity="1"></stop><stop offset="85.55555555555554%" stop-color="#2563eb" stop-opacity="1"></stop></linearGradient></defs><defs><linearGradient id="grad1_1" x1="43.8%" y1="0%" x2="100%" y2="100%"><stop offset="14.444444444444446%" stop-color="#2563eb" stop-opacity="1"></stop><stop offset="85.55555555555554%" stop-color="#7887f1" stop-opacity="1"></stop></linearGradient></defs><defs><linearGradient id="grad1_2" x1="43.8%" y1="0%" x2="100%" y2="100%"><stop offset="14.444444444444446%" stop-color="#aaadf7" stop-opacity="1"></stop><stop offset="85.55555555555554%" stop-color="#7887f1" stop-opacity="1"></stop></linearGradient></defs><defs><linearGradient id="grad1_3" x1="43.8%" y1="0%" x2="100%" y2="100%"><stop offset="14.444444444444446%" stop-color="#aaadf7" stop-opacity="1"></stop><stop offset="85.55555555555554%" stop-color="#d6d5fb" stop-opacity="1"></stop></linearGradient></defs><defs><linearGradient id="grad1_4" x1="43.8%" y1="0%" x2="100%" y2="100%"><stop offset="14.444444444444446%" stop-color="#ffffff" stop-opacity="1"></stop><stop offset="85.55555555555554%" stop-color="#d6d5fb" stop-opacity="1"></stop></linearGradient></defs><defs><linearGradient id="grad2_0" x1="0%" y1="0%" x2="56.3%" y2="100%"><stop offset="14.444444444444446%" stop-color="#2563eb" stop-opacity="1"></stop><stop offset="85.55555555555554%" stop-color="#2563eb" stop-opacity="1"></stop></linearGradient></defs><defs><linearGradient id="grad2_1" x1="0%" y1="0%" x2="56.3%" y2="100%"><stop offset="14.444444444444446%" stop-color="#7887f1" stop-opacity="1"></stop><stop offset="85.55555555555554%" stop-color="#2563eb" stop-opacity="1"></stop></linearGradient></defs><defs><linearGradient id="grad2_2" x1="0%" y1="0%" x2="56.3%" y2="100%"><stop offset="14.444444444444446%" stop-color="#7887f1" stop-opacity="1"></stop><stop offset="85.55555555555554%" stop-color="#aaadf7" stop-opacity="1"></stop></linearGradient></defs><defs><linearGradient id="grad2_3" x1="0%" y1="0%" x2="56.3%" y2="100%"><stop offset="14.444444444444446%" stop-color="#d6d5fb" stop-opacity="1"></stop><stop offset="85.55555555555554%" stop-color="#aaadf7" stop-opacity="1"></stop></linearGradient></defs><defs><linearGradient id="grad2_4" x1="0%" y1="0%" x2="56.3%" y2="100%"><stop offset="14.444444444444446%" stop-color="#d6d5fb" stop-opacity="1"></stop><stop offset="85.55555555555554%" stop-color="#ffffff" stop-opacity="1"></stop></linearGradient></defs><g transform="translate(960, 0)"><path d="M0 540C-54.3 550.3 -108.6 560.5 -139.8 521.6C-171 482.7 -179.1 394.5 -203.5 352.5C-227.9 310.4 -268.5 314.5 -296.3 296.3C-324.1 278.1 -339 237.7 -353.3 204C-367.7 170.3 -381.4 143.4 -412.5 110.5C-443.5 77.6 -491.7 38.8 -540 0L0 0Z" fill="#ebeafd"></path><path d="M0 432C-43.4 440.2 -86.8 448.4 -111.8 417.3C-136.8 386.1 -143.3 315.6 -162.8 282C-182.3 248.3 -214.8 251.6 -237 237C-259.2 222.5 -271.2 190.1 -282.7 163.2C-294.1 136.3 -305.2 114.7 -330 88.4C-354.8 62.1 -393.4 31.1 -432 0L0 0Z" fill="#c1c1f9"></path><path d="M0 324C-32.6 330.2 -65.1 336.3 -83.9 313C-102.6 289.6 -107.5 236.7 -122.1 211.5C-136.7 186.3 -161.1 188.7 -177.8 177.8C-194.4 166.9 -203.4 142.6 -212 122.4C-220.6 102.2 -228.9 86 -247.5 66.3C-266.1 46.6 -295 23.3 -324 0L0 0Z" fill="#939af4"></path><path d="M0 216C-21.7 220.1 -43.4 224.2 -55.9 208.6C-68.4 193.1 -71.6 157.8 -81.4 141C-91.2 124.2 -107.4 125.8 -118.5 118.5C-129.6 111.2 -135.6 95.1 -141.3 81.6C-147.1 68.1 -152.6 57.4 -165 44.2C-177.4 31.1 -196.7 15.5 -216 0L0 0Z" fill="#5875ee"></path><path d="M0 108C-10.9 110.1 -21.7 112.1 -28 104.3C-34.2 96.5 -35.8 78.9 -40.7 70.5C-45.6 62.1 -53.7 62.9 -59.3 59.3C-64.8 55.6 -67.8 47.5 -70.7 40.8C-73.5 34.1 -76.3 28.7 -82.5 22.1C-88.7 15.5 -98.3 7.8 -108 0L0 0Z" fill="#2563eb"></path></g><g transform="translate(0, 540)"><path d="M0 -540C35 -489.6 70 -439.3 116.2 -433.7C162.4 -428.1 219.9 -467.3 270 -467.7C320.1 -468 362.8 -429.4 379.7 -379.7C396.7 -330.1 387.8 -269.4 388 -224C388.1 -178.6 397.2 -148.4 424 -113.6C450.9 -78.8 495.4 -39.4 540 0L0 0Z" fill="#ebeafd"></path><path d="M0 -432C28 -391.7 56 -351.4 93 -347C130 -342.5 175.9 -373.9 216 -374.1C256.1 -374.4 290.2 -343.5 303.8 -303.8C317.3 -264.1 310.3 -215.5 310.4 -179.2C310.5 -142.9 317.8 -118.7 339.2 -90.9C360.7 -63.1 396.3 -31.5 432 0L0 0Z" fill="#c1c1f9"></path><path d="M0 -324C21 -293.8 42 -263.6 69.7 -260.2C97.5 -256.9 131.9 -280.4 162 -280.6C192.1 -280.8 217.7 -257.6 227.8 -227.8C238 -198 232.7 -161.7 232.8 -134.4C232.9 -107.1 238.3 -89 254.4 -68.2C270.5 -47.3 297.3 -23.6 324 0L0 0Z" fill="#939af4"></path><path d="M0 -216C14 -195.9 28 -175.7 46.5 -173.5C65 -171.3 88 -186.9 108 -187.1C128 -187.2 145.1 -171.7 151.9 -151.9C158.7 -132 155.1 -107.8 155.2 -89.6C155.2 -71.4 158.9 -59.4 169.6 -45.4C180.3 -31.5 198.2 -15.8 216 0L0 0Z" fill="#5875ee"></path><path d="M0 -108C7 -97.9 14 -87.9 23.2 -86.7C32.5 -85.6 44 -93.5 54 -93.5C64 -93.6 72.6 -85.9 75.9 -75.9C79.3 -66 77.6 -53.9 77.6 -44.8C77.6 -35.7 79.4 -29.7 84.8 -22.7C90.2 -15.8 99.1 -7.9 108 0L0 0Z" fill="#2563eb"></path></g></svg>