<svg id="visual" viewBox="0 0 960 540" width="960" height="540" xmlns="http://www.w3.org/2000/svg" xmlns:xlink="http://www.w3.org/1999/xlink" version="1.1"><rect x="0" y="0" width="960" height="540" fill="#fff"></rect><defs><linearGradient id="grad1_0" x1="43.8%" y1="0%" x2="100%" y2="100%"><stop offset="14.444444444444446%" stop-color="#2563eb" stop-opacity="1"></stop><stop offset="85.55555555555554%" stop-color="#2563eb" stop-opacity="1"></stop></linearGradient></defs><defs><linearGradient id="grad1_1" x1="43.8%" y1="0%" x2="100%" y2="100%"><stop offset="14.444444444444446%" stop-color="#2563eb" stop-opacity="1"></stop><stop offset="85.55555555555554%" stop-color="#7887f1" stop-opacity="1"></stop></linearGradient></defs><defs><linearGradient id="grad1_2" x1="43.8%" y1="0%" x2="100%" y2="100%"><stop offset="14.444444444444446%" stop-color="#aaadf7" stop-opacity="1"></stop><stop offset="85.55555555555554%" stop-color="#7887f1" stop-opacity="1"></stop></linearGradient></defs><defs><linearGradient id="grad1_3" x1="43.8%" y1="0%" x2="100%" y2="100%"><stop offset="14.444444444444446%" stop-color="#aaadf7" stop-opacity="1"></stop><stop offset="85.55555555555554%" stop-color="#d6d5fb" stop-opacity="1"></stop></linearGradient></defs><defs><linearGradient id="grad1_4" x1="43.8%" y1="0%" x2="100%" y2="100%"><stop offset="14.444444444444446%" stop-color="#ffffff" stop-opacity="1"></stop><stop offset="85.55555555555554%" stop-color="#d6d5fb" stop-opacity="1"></stop></linearGradient></defs><defs><linearGradient id="grad2_0" x1="0%" y1="0%" x2="56.3%" y2="100%"><stop offset="14.444444444444446%" stop-color="#2563eb" stop-opacity="1"></stop><stop offset="85.55555555555554%" stop-color="#2563eb" stop-opacity="1"></stop></linearGradient></defs><defs><linearGradient id="grad2_1" x1="0%" y1="0%" x2="56.3%" y2="100%"><stop offset="14.444444444444446%" stop-color="#7887f1" stop-opacity="1"></stop><stop offset="85.55555555555554%" stop-color="#2563eb" stop-opacity="1"></stop></linearGradient></defs><defs><linearGradient id="grad2_2" x1="0%" y1="0%" x2="56.3%" y2="100%"><stop offset="14.444444444444446%" stop-color="#7887f1" stop-opacity="1"></stop><stop offset="85.55555555555554%" stop-color="#aaadf7" stop-opacity="1"></stop></linearGradient></defs><defs><linearGradient id="grad2_3" x1="0%" y1="0%" x2="56.3%" y2="100%"><stop offset="14.444444444444446%" stop-color="#d6d5fb" stop-opacity="1"></stop><stop offset="85.55555555555554%" stop-color="#aaadf7" stop-opacity="1"></stop></linearGradient></defs><defs><linearGradient id="grad2_4" x1="0%" y1="0%" x2="56.3%" y2="100%"><stop offset="14.444444444444446%" stop-color="#d6d5fb" stop-opacity="1"></stop><stop offset="85.55555555555554%" stop-color="#ffffff" stop-opacity="1"></stop></linearGradient></defs><g transform="translate(960, 0)"><path d="M0 540C-28.6 461.9 -57.1 383.7 -100.9 376.7C-144.8 369.7 -203.9 433.8 -259.5 449.5C-315.1 465.2 -367.2 432.4 -381.8 381.8C-396.5 331.2 -373.6 262.7 -376.7 217.5C-379.8 172.3 -408.9 150.4 -440.5 118C-472 85.7 -506 42.8 -540 0L0 0Z" fill="#ebeafd"></path><path d="M0 432C-22.8 369.5 -45.7 307 -80.8 301.4C-115.8 295.8 -163.1 347 -207.6 359.6C-252.1 372.1 -293.8 346 -305.5 305.5C-317.2 265 -298.9 210.2 -301.4 174C-303.9 137.8 -327.1 120.3 -352.4 94.4C-377.6 68.5 -404.8 34.3 -432 0L0 0Z" fill="#c1c1f9"></path><path d="M0 324C-17.1 277.1 -34.3 230.2 -60.6 226C-86.9 221.8 -122.3 260.3 -155.7 269.7C-189.1 279.1 -220.3 259.5 -229.1 229.1C-237.9 198.7 -224.2 157.6 -226 130.5C-227.9 103.4 -245.4 90.2 -264.3 70.8C-283.2 51.4 -303.6 25.7 -324 0L0 0Z" fill="#939af4"></path><path d="M0 216C-11.4 184.7 -22.8 153.5 -40.4 150.7C-57.9 147.9 -81.6 173.5 -103.8 179.8C-126 186.1 -146.9 173 -152.7 152.7C-158.6 132.5 -149.4 105.1 -150.7 87C-151.9 68.9 -163.6 60.2 -176.2 47.2C-188.8 34.3 -202.4 17.1 -216 0L0 0Z" fill="#5875ee"></path><path d="M0 108C-5.7 92.4 -11.4 76.7 -20.2 75.3C-29 73.9 -40.8 86.8 -51.9 89.9C-63 93 -73.4 86.5 -76.4 76.4C-79.3 66.2 -74.7 52.5 -75.3 43.5C-76 34.5 -81.8 30.1 -88.1 23.6C-94.4 17.1 -101.2 8.6 -108 0L0 0Z" fill="#2563eb"></path></g><g transform="translate(0, 540)"><path d="M0 -540C35.3 -493.1 70.5 -446.1 116.5 -434.7C162.4 -423.2 219.1 -447.3 243.5 -421.8C267.9 -396.2 260.1 -321 287.8 -287.8C315.5 -254.6 378.6 -263.4 426.1 -246C473.5 -228.6 505.2 -185.1 521.6 -139.8C538 -94.4 539 -47.2 540 0L0 0Z" fill="#ebeafd"></path><path d="M0 -432C28.2 -394.4 56.4 -356.9 93.2 -347.7C129.9 -338.6 175.3 -357.8 194.8 -337.4C214.3 -317 208.1 -256.8 230.2 -230.2C252.4 -203.7 302.9 -210.7 340.9 -196.8C378.8 -182.9 404.2 -148.1 417.3 -111.8C430.4 -75.5 431.2 -37.8 432 0L0 0Z" fill="#c1c1f9"></path><path d="M0 -324C21.2 -295.8 42.3 -267.7 69.9 -260.8C97.5 -253.9 131.4 -268.4 146.1 -253.1C160.8 -237.7 156.1 -192.6 172.7 -172.7C189.3 -152.8 227.2 -158 255.7 -147.6C284.1 -137.2 303.1 -111.1 313 -83.9C322.8 -56.6 323.4 -28.3 324 0L0 0Z" fill="#939af4"></path><path d="M0 -216C14.1 -197.2 28.2 -178.4 46.6 -173.9C65 -169.3 87.6 -178.9 97.4 -168.7C107.2 -158.5 104 -128.4 115.1 -115.1C126.2 -101.8 151.5 -105.3 170.4 -98.4C189.4 -91.5 202.1 -74 208.6 -55.9C215.2 -37.8 215.6 -18.9 216 0L0 0Z" fill="#5875ee"></path><path d="M0 -108C7.1 -98.6 14.1 -89.2 23.3 -86.9C32.5 -84.6 43.8 -89.5 48.7 -84.4C53.6 -79.2 52 -64.2 57.6 -57.6C63.1 -50.9 75.7 -52.7 85.2 -49.2C94.7 -45.7 101 -37 104.3 -28C107.6 -18.9 107.8 -9.4 108 0L0 0Z" fill="#2563eb"></path></g></svg>