<svg id="visual" viewBox="0 0 900 600" width="900" height="600" xmlns="http://www.w3.org/2000/svg" xmlns:xlink="http://www.w3.org/1999/xlink" version="1.1"><rect x="0" y="0" width="900" height="600" fill="#16181D"></rect><path d="M0 513L9.3 522.8C18.7 532.7 37.3 552.3 56.2 559.7C75 567 94 562 112.8 553.5C131.7 545 150.3 533 169 528.8C187.7 524.7 206.3 528.3 225 531.2C243.7 534 262.3 536 281.2 546.3C300 556.7 319 575.3 337.8 583.7C356.7 592 375.3 590 394 582.8C412.7 575.7 431.3 563.3 450 545.3C468.7 527.3 487.3 503.7 506.2 499.7C525 495.7 544 511.3 562.8 525.5C581.7 539.7 600.3 552.3 619 552C637.7 551.7 656.3 538.3 675 524.3C693.7 510.3 712.3 495.7 731.2 506.8C750 518 769 555 787.8 565.3C806.7 575.7 825.3 559.3 844 546.2C862.7 533 881.3 523 890.7 518L900 513L900 601L890.7 601C881.3 601 862.7 601 844 601C825.3 601 806.7 601 787.8 601C769 601 750 601 731.2 601C712.3 601 693.7 601 675 601C656.3 601 637.7 601 619 601C600.3 601 581.7 601 562.8 601C544 601 525 601 506.2 601C487.3 601 468.7 601 450 601C431.3 601 412.7 601 394 601C375.3 601 356.7 601 337.8 601C319 601 300 601 281.2 601C262.3 601 243.7 601 225 601C206.3 601 187.7 601 169 601C150.3 601 131.7 601 112.8 601C94 601 75 601 56.2 601C37.3 601 18.7 601 9.3 601L0 601Z" fill="#1D2433" stroke-linecap="round" stroke-linejoin="miter"></path></svg>