<svg id="visual" viewBox="0 0 960 540" width="960" height="540" xmlns="http://www.w3.org/2000/svg" xmlns:xlink="http://www.w3.org/1999/xlink" version="1.1"><rect x="0" y="0" width="960" height="540" fill="#fff"></rect><path d="M0 487L7.7 481.8C15.3 476.7 30.7 466.3 45.8 462.2C61 458 76 460 91.2 462.3C106.3 464.7 121.7 467.3 137 474.5C152.3 481.7 167.7 493.3 183 498.3C198.3 503.3 213.7 501.7 228.8 487.2C244 472.7 259 445.3 274.2 442.2C289.3 439 304.7 460 320 462.5C335.3 465 350.7 449 365.8 450.2C381 451.3 396 469.7 411.2 483C426.3 496.3 441.7 504.7 457 497.7C472.3 490.7 487.7 468.3 503 466.7C518.3 465 533.7 484 548.8 487.2C564 490.3 579 477.7 594.2 478.5C609.3 479.3 624.7 493.7 640 492.2C655.3 490.7 670.7 473.3 685.8 464.7C701 456 716 456 731.2 447.5C746.3 439 761.7 422 777 421.5C792.3 421 807.7 437 823 454C838.3 471 853.7 489 868.8 489.2C884 489.3 899 471.7 914.2 472.2C929.3 472.7 944.7 491.3 952.3 500.7L960 510L960 541L952.3 541C944.7 541 929.3 541 914.2 541C899 541 884 541 868.8 541C853.7 541 838.3 541 823 541C807.7 541 792.3 541 777 541C761.7 541 746.3 541 731.2 541C716 541 701 541 685.8 541C670.7 541 655.3 541 640 541C624.7 541 609.3 541 594.2 541C579 541 564 541 548.8 541C533.7 541 518.3 541 503 541C487.7 541 472.3 541 457 541C441.7 541 426.3 541 411.2 541C396 541 381 541 365.8 541C350.7 541 335.3 541 320 541C304.7 541 289.3 541 274.2 541C259 541 244 541 228.8 541C213.7 541 198.3 541 183 541C167.7 541 152.3 541 137 541C121.7 541 106.3 541 91.2 541C76 541 61 541 45.8 541C30.7 541 15.3 541 7.7 541L0 541Z" fill="#f3f4f6" stroke-linecap="round" stroke-linejoin="miter"></path></svg>