<svg version="1.0" width="133.333" height="133.333" viewBox="0 0 100 100">
  <path d="M25.2 20.2c-1.6 1.6-1.5 5.1.2 11.5.8 2.9 1.2 5.3 1 5.3-.2 0 .1 1.1.6 2.6.6 1.4 1.2 3.7 1.5 5.2.6 3.3 3.8 17.2 6 26.2s3.4 10 11.4 10c5.6 0 7-.4 8.9-2.3C57.4 76.1 62 69.3 62 68c0-.4.4-1 .8-1.2.5-.2 3.3-4.4 6.3-9.3 3-5 5.6-9.2 5.9-9.5.3-.3 1.1-1.7 1.9-3.3.8-1.5 1.8-2.7 2.3-2.7.4 0 .8-.5.8-1.1 0-.6 1.7-3.7 3.8-6.8 2.1-3.1 4.4-7.1 5-9 1.8-5 .4-6.1-8.1-6.1-6.9 0-7 0-10.9 4.2-2.1 2.3-3.8 4.5-3.8 5 0 .9-11.6 19.4-13.9 22.1-.8.9-1.8 1.4-2.2 1-.4-.5-2.1-6.8-3.8-14.2C42 19.4 41.8 19 33.2 19c-4 0-7.3.5-8 1.2zm18.2 17c2 9 3.9 18 4.3 20 .6 3.9 1.7 4.9 2.6 2.4.3-.7 5.8-9.7 12.3-20L74.4 21H89l-5.4 8.2c-3 4.6-11.3 17.5-18.4 28.8l-13 20.5-6.5.3c-5.6.2-6.6 0-7.1-1.5C37.7 74.2 26 22.9 26 21.9c0-.5 3.1-.9 6.8-.9h6.9l3.7 16.2z"/>
</svg>
