<svg id="visual" viewBox="0 0 960 540" width="960" height="540" xmlns="http://www.w3.org/2000/svg" xmlns:xlink="http://www.w3.org/1999/xlink" version="1.1"><rect x="0" y="0" width="960" height="540" fill="#fff">
</rect>
<path d="M0 
  416L5.3 
  414.8C10.7 
  413.7 21.3 
  411.3 
  32 
  425.3C42.7 
  439.3 
  53.3 
  469.7 
  64 
  471.5C74.7 
  473.3 
  85.3 
  446.7 
  96 
  432.8C106.7 
  419 
  117.3 
  418 
  128 
  428C138.7 
  438 
  149.3 
  459 
  160 
  465C170.7 
  471 
  181.3 
  462 
  192 
  452.8C202.7 
  443.7 
  213.3 434.3 224 431C234.7 427.7 245.3 430.3 256 444.7C266.7 459 277.3 485 288 496.5C298.7 508 309.3 505 320 500.5C330.7 496 341.3 490 352 475.7C362.7 461.3 373.3 438.7 384 425.8C394.7 413 405.3 410 416 414.3C426.7 418.7 437.3 430.3 448 448C458.7 465.7 469.3 489.3 480 483.8C490.7 478.3 501.3 443.7 512 425.5C522.7 407.3 533.3 405.7 544 416.3C554.7 427 565.3 450 576 467.3C586.7 484.7 597.3 496.3 608 500.5C618.7 504.7 629.3 501.3 640 500C650.7 498.7 661.3 499.3 672 496.3C682.7 493.3 693.3 486.7 704 476.7C714.7 466.7 725.3 453.3 736 446.8C746.7 440.3 757.3 440.7 768 451C778.7 461.3 789.3 481.7 800 489.7C810.7 497.7 821.3 493.3 832 480.3C842.7 467.3 853.3 445.7 864 436.7C874.7 427.7 885.3 431.3 896 441.3C906.7 451.3 917.3 467.7 928 472.7C938.7 477.7 949.3 471.3 954.7 468.2L960 465" 
fill="none" 
stroke-linecap="round" 
stroke-linejoin="miter" 
stroke="#2563eb" 
stroke-width="40">
</path>
</svg>