<svg id="visual" viewBox="0 0 900 600" width="900" height="600" xmlns="http://www.w3.org/2000/svg" xmlns:xlink="http://www.w3.org/1999/xlink" version="1.1"><rect x="0" y="0" width="900" height="600" fill="#fff"></rect><path d="M0 442L11.5 443.2C23 444.3 46 446.7 69 443C92 439.3 115 429.7 138.2 454.7C161.3 479.7 184.7 539.3 207.8 545.5C231 551.7 254 504.3 277 468.5C300 432.7 323 408.3 346 430.3C369 452.3 392 520.7 415.2 525.7C438.3 530.7 461.7 472.3 484.8 458.5C508 444.7 531 475.3 554 472.8C577 470.3 600 434.7 623 443.5C646 452.3 669 505.7 692.2 506.2C715.3 506.7 738.7 454.3 761.8 436.3C785 418.3 808 434.7 831 442.5C854 450.3 877 449.7 888.5 449.3L900 449" fill="none" stroke-linecap="round" stroke-linejoin="miter" stroke="#2563EB" stroke-width="40"></path></svg>