<svg id="visual" viewBox="0 0 960 540" width="960" height="540" xmlns="http://www.w3.org/2000/svg" xmlns:xlink="http://www.w3.org/1999/xlink" version="1.1"><rect x="0" y="0" width="960" height="540" fill="#fff"></rect><path d="M0 454L7 451C14 448 28 442 41.8 444.5C55.7 447 69.3 458 83.2 472.2C97 486.3 111 503.7 125 511.8C139 520 153 519 167 517.5C181 516 195 514 208.8 512.5C222.7 511 236.3 510 250.2 502.7C264 495.3 278 481.7 292 470.7C306 459.7 320 451.3 334 452.5C348 453.7 362 464.3 375.8 478.7C389.7 493 403.3 511 417.2 507.3C431 503.7 445 478.3 459 468.5C473 458.7 487 464.3 501 466.8C515 469.3 529 468.7 542.8 475.2C556.7 481.7 570.3 495.3 584.2 506.3C598 517.3 612 525.7 626 516.2C640 506.7 654 479.3 668 471.3C682 463.3 696 474.7 709.8 482.5C723.7 490.3 737.3 494.7 751.2 503C765 511.3 779 523.7 793 513.3C807 503 821 470 835 458C849 446 863 455 876.8 456.2C890.7 457.3 904.3 450.7 918.2 451.8C932 453 946 462 953 466.5L960 471L960 541L953 541C946 541 932 541 918.2 541C904.3 541 890.7 541 876.8 541C863 541 849 541 835 541C821 541 807 541 793 541C779 541 765 541 751.2 541C737.3 541 723.7 541 709.8 541C696 541 682 541 668 541C654 541 640 541 626 541C612 541 598 541 584.2 541C570.3 541 556.7 541 542.8 541C529 541 515 541 501 541C487 541 473 541 459 541C445 541 431 541 417.2 541C403.3 541 389.7 541 375.8 541C362 541 348 541 334 541C320 541 306 541 292 541C278 541 264 541 250.2 541C236.3 541 222.7 541 208.8 541C195 541 181 541 167 541C153 541 139 541 125 541C111 541 97 541 83.2 541C69.3 541 55.7 541 41.8 541C28 541 14 541 7 541L0 541Z" fill="#f3f4f6"></path></svg>